<?xml version="1.0" standalone="no"?>
<!DOCTYPE svg PUBLIC "-//W3C//DTD SVG 20010904//EN"
 "http://www.w3.org/TR/2001/REC-SVG-20010904/DTD/svg10.dtd">
<svg version="1.0" xmlns="http://www.w3.org/2000/svg"
 width="50.000000pt" height="50.000000pt" viewBox="0 0 50.000000 50.000000"
 preserveAspectRatio="xMidYMid meet">

<g transform="translate(0.000000,50.000000) scale(0.100000,-0.100000)"
fill="#000000" stroke="none">
<path d="M249 475 c-3 -2 -21 -5 -42 -7 -20 -1 -37 -6 -37 -10 0 -4 -10 -18
-22 -30 -17 -17 -22 -34 -22 -89 -1 -39 -7 -74 -14 -81 -7 -7 -12 -9 -12 -4 0
4 -7 0 -15 -8 -9 -9 -28 -14 -44 -12 -27 3 -28 2 -21 -30 4 -18 15 -40 23 -49
18 -17 53 -20 62 -5 4 6 -1 7 -11 3 -13 -5 -15 -2 -9 18 4 13 14 31 22 39 14
13 15 13 10 -1 -4 -11 3 -20 21 -29 22 -9 25 -9 15 1 -7 7 -13 21 -13 30 0 10
-6 20 -12 22 -10 4 -9 8 2 16 9 6 16 7 18 1 8 -22 20 -8 20 23 0 44 17 84 41
97 18 9 39 8 92 -6 21 -6 39 -47 39 -89 0 -29 2 -32 23 -27 42 11 64 48 23 40
-23 -5 -23 -4 -9 40 11 39 11 48 -2 69 -9 13 -20 23 -25 23 -6 0 -10 6 -10 14
0 26 -73 59 -91 41z"/>
<path d="M370 440 c-20 -12 -5 -24 16 -12 9 5 12 12 7 15 -5 3 -15 2 -23 -3z"/>
<path d="M70 400 c0 -5 4 -10 9 -10 6 0 13 5 16 10 3 6 -1 10 -9 10 -9 0 -16
-4 -16 -10z"/>
<path d="M400 370 c0 -25 32 -27 51 -3 8 10 9 14 2 10 -6 -4 -14 -3 -18 3 -11
18 -35 11 -35 -10z"/>
<path d="M455 320 c-7 -12 2 -30 16 -30 12 0 12 27 0 35 -5 3 -12 1 -16 -5z"/>
<path d="M277 313 c-12 -3 -17 -12 -15 -25 4 -30 55 -34 64 -6 5 18 -10 40
-26 37 -3 -1 -13 -3 -23 -6z m33 -23 c0 -5 -4 -10 -10 -10 -5 0 -10 5 -10 10
0 6 5 10 10 10 6 0 10 -4 10 -10z"/>
<path d="M20 296 c0 -8 -3 -22 -7 -32 -5 -14 -2 -16 15 -12 11 3 23 1 26 -6 2
-6 15 2 29 19 28 34 21 45 -30 45 -22 0 -33 -5 -33 -14z"/>
<path d="M187 303 c-4 -3 -7 -15 -7 -25 0 -22 42 -25 59 -5 19 23 -31 52 -52
30z m30 -19 c-3 -3 -12 -4 -19 -1 -8 3 -5 6 6 6 11 1 17 -2 13 -5z"/>
<path d="M220 225 c0 -3 11 -10 25 -15 14 -5 25 -16 25 -24 0 -10 6 -13 15
-10 19 8 19 24 0 24 -9 0 -12 6 -9 15 5 11 -1 15 -25 15 -17 0 -31 -2 -31 -5z"/>
<path d="M330 214 c0 -12 -9 -29 -20 -39 -11 -10 -20 -24 -20 -31 0 -25 -46
-27 -91 -3 -33 16 -41 18 -30 5 10 -12 11 -19 2 -29 -6 -8 -8 -17 -4 -20 3 -4
1 -7 -4 -7 -6 0 -13 5 -15 12 -4 11 -65 19 -82 10 -12 -7 16 -22 42 -22 24 0
28 -10 11 -27 -9 -9 -3 -17 22 -32 45 -28 114 -37 168 -22 54 15 113 49 105
62 -3 5 0 9 5 9 6 0 11 7 11 15 0 8 7 15 15 15 8 0 15 5 15 10 0 13 -57 13
-65 0 -4 -7 -13 -6 -26 1 -15 8 -24 7 -36 -3 -14 -11 -16 -10 -11 7 4 11 12
35 19 52 10 26 11 35 1 45 -9 9 -12 8 -12 -8z m45 -114 c3 -5 2 -10 -4 -10 -5
0 -13 5 -16 10 -3 6 -2 10 4 10 5 0 13 -4 16 -10z m-158 -14 c-3 -8 5 -19 20
-27 23 -13 27 -11 49 16 19 24 26 27 36 17 20 -20 -35 -59 -93 -67 -73 -10
-85 3 -44 48 28 30 40 35 32 13z"/>
<path d="M215 40 c3 -5 8 -10 11 -10 2 0 4 5 4 10 0 6 -5 10 -11 10 -5 0 -7
-4 -4 -10z"/>
<path d="M400 215 c-7 -8 -16 -13 -20 -10 -15 9 -22 -15 -10 -30 16 -19 30
-19 30 0 0 8 9 15 21 15 13 0 18 -4 13 -12 -5 -7 0 -9 14 -6 12 3 23 1 25 -6
3 -6 8 -3 12 7 9 21 -3 36 -33 42 -12 2 -26 6 -31 9 -5 3 -14 -1 -21 -9z"/>
<path d="M204 192 c11 -12 19 -13 27 -5 7 7 3 12 -16 15 -25 5 -25 4 -11 -10z"/>
<path d="M237 159 c7 -7 15 -10 18 -7 3 3 -2 9 -12 12 -14 6 -15 5 -6 -5z"/>
</g>
</svg>
